<svg height="496pt" viewBox="0 0 496 496" width="496pt" xmlns="http://www.w3.org/2000/svg"><path d="m372.449219 69.488281-33.945313-33.945312-23.703125 15.425781c-11.289062-6.9375-23.710937-12.160156-36.960937-15.328125l-5.839844-27.640625h-48l-5.847656 27.640625c-13.25 3.167969-25.671875 8.390625-36.960938 15.328125l-23.703125-15.425781-33.945312 33.945312 12.289062 29.3125 1.167969 61.199219h15c0-53.015625 42.984375-96 96-96s96 42.984375 96 96h16l-.0625-61.199219zm0 0" fill="#fcd770"/><path d="m128.183594 80.542969 7.65625 18.257812.160156 61.199219h16c0-20.617188 6.558594-39.671875 17.625-55.3125-10.144531-12.910156-24.808594-21.925781-41.441406-24.144531zm0 0" fill="#ffc729"/><path d="m367.710938 80.601562c-16.832032 2.191407-31.582032 10.957032-41.6875 23.597657 11.265624 15.738281 17.976562 34.96875 17.976562 55.800781h16l-.0625-61.199219zm0 0" fill="#ffc729"/><path d="m464 296v-39.015625c0-14.679687-9.992188-27.480469-24.238281-31.046875l-39.761719-9.9375-.015625-14.464844c14.34375-8.304687 24.015625-23.773437 24.015625-41.535156v-13.984375c0-26.28125-20.257812-49.199219-46.519531-49.992187-27.183594-.816407-49.480469 20.976562-49.480469 47.976562v16c0 17.761719 9.664062 33.222656 24 41.527344v14.472656l-39.761719 9.945312c-14.246093 3.558594-24.238281 16.359376-24.238281 31.039063v39.015625zm0 0" fill="#ccd1d9"/><path d="m352 256.984375c0-14.585937-6.617188-27.785156-17.214844-36.679687l-22.546875 5.640624c-14.246093 3.558594-24.238281 16.359376-24.238281 31.039063v39.015625h64zm0 0" fill="#aab2bd"/><path d="m208 296v-39.015625c0-14.679687-9.992188-27.480469-24.238281-31.046875l-39.761719-9.9375-.015625-14.464844c14.34375-8.304687 24.015625-23.773437 24.015625-41.535156v-13.984375c0-26.28125-20.257812-49.199219-46.519531-49.992187-27.183594-.816407-49.480469 20.976562-49.480469 47.976562v16c0 17.761719 9.664062 33.222656 24 41.527344v14.472656l-39.761719 9.945312c-14.246093 3.558594-24.238281 16.359376-24.238281 31.039063v39.015625zm0 0" fill="#ccd1d9"/><path d="m208 256.984375c0-14.6875-9.992188-27.480469-24.238281-31.046875l-22.546875-5.640625c-10.597656 8.902344-17.214844 22.109375-17.214844 36.6875v39.015625h64zm0 0" fill="#aab2bd"/><path d="m336 296v-39.015625c0-14.679687-9.992188-27.480469-24.238281-31.046875l-39.761719-9.9375-.015625-14.464844c14.34375-8.304687 24.015625-23.773437 24.015625-41.535156v-13.984375c0-26.28125-20.257812-49.199219-46.519531-49.992187-27.183594-.816407-49.480469 20.976562-49.480469 47.976562v16c0 17.761719 9.664062 33.222656 24 41.527344v14.472656l-39.761719 9.945312c-14.246093 3.558594-24.238281 16.359376-24.238281 31.039063v39.015625zm0 0" fill="#ccd1d9"/><g fill="#aab2bd"><path d="m464 256.984375c0-14.6875-9.992188-27.480469-24.238281-31.046875l-8.816407-2.203125-106.898437 56.265625h-1.808594l-34.238281-9.777344v25.777344h176zm0 0"/><path d="m336 273.710938-11.953125 6.289062h-1.808594l-48.117187-13.742188c-4.210938-1.210937-8.535156-1.792968-12.890625-2.035156l-34.941407-11.175781c-10.472656-3.351563-21.367187-5.046875-32.378906-5.046875-7.75 0-15.503906.847656-23.199218 2.558594l-10.367188 2.402344c-.175781 1.328124-.34375 2.65625-.34375 4.023437v39.015625h176zm0 0"/><path d="m170.710938 250.558594-34.710938 8.042968v-11.792968l-48.976562-28.570313-30.785157 7.699219c-14.246093 3.566406-24.238281 16.367188-24.238281 31.046875v39.015625h176v-39.015625c0-2.808594-.472656-5.503906-1.160156-8.121094-4.28125-.519531-8.59375-.863281-12.929688-.863281-7.742187 0-15.503906.847656-23.199218 2.558594zm0 0"/></g><path d="m338.503906 387.054688-67.601562-60.839844-12.863282-46.214844-36.625-11.710938c-8.886718-2.839843-18.167968-4.289062-27.503906-4.289062-6.589844 0-13.15625.71875-19.589844 2.152344l-94.320312 21.847656-8 64 56.398438 35.441406 102.601562 85.558594 12.367188 10.910156c2.984374 2.632813 6.832031 4.089844 10.816406 4.089844h1.472656c9.023438 0 16.34375-7.320312 16.34375-16.34375 0-4.847656-2.152344-9.449219-5.878906-12.558594 3.800781 3.167969 8.589844 4.902344 13.535156 4.902344 9.023438 0 16.34375-7.320312 16.34375-16.34375 0-4.847656-2.152344-9.449219-5.878906-12.558594l-30.65625-25.546875 31.984375 26.65625c2.941406 2.449219 6.648437 3.792969 10.472656 3.792969h1.734375c9.023438 0 16.34375-7.320312 16.34375-16.34375 0-4.847656-2.152344-9.449219-5.878906-12.558594l1.261718 1.054688c2.984376 2.488281 6.746094 3.847656 10.625 3.847656h1.382813c9.175781 0 16.609375-7.433594 16.609375-16.609375 0-4.703125-2-9.191406-5.496094-12.335937zm0 0" fill="#ecc19c"/><path d="m338.503906 387.054688-67.601562-60.839844c-4.4375-4-10.214844-6.214844-16.199219-6.214844-4.390625 0-8.695313 1.191406-12.457031 3.449219l-29.78125 17.871093c-2.921875 1.75-6.265625 2.679688-9.671875 2.679688-10.378907 0-18.792969-8.414062-18.792969-18.792969v-1.589843c0-7.121094 4.023438-13.625 10.390625-16.808594l44.632813-22.3125c5.90625-2.960938 12.417968-4.496094 19.015624-4.496094 3.953126 0 7.890626.550781 11.6875 1.640625l50.273438 14.359375h8l152-80h8v104l-144 72zm0 0" fill="#f5e0cd"/><path d="m248 400-11.121094 11.566406 44.335938 36.945313c3.792968 3.152343 8.265625 5.273437 12.992187 6.441406 1.113281-2.210937 1.792969-4.664063 1.792969-7.296875 0-4.847656-2.152344-9.449219-5.878906-12.558594zm0 0" fill="#dfb28b"/><path d="m200 463.03125c0 9.367188 7.601562 16.96875 16.96875 16.96875 4.503906 0 8.816406-1.785156 12-4.96875l14.054688-14.054688c3.183593-3.183593 4.96875-7.496093 4.96875-12 .007812-9.375-7.59375-16.976562-16.960938-16.976562-4.503906 0-8.816406 1.785156-12 4.96875l-14.054688 14.054688c-3.191406 3.191406-4.976562 7.503906-4.976562 12.007812zm0 0" fill="#f5e0cd"/><path d="m176 439.03125c0 9.367188 7.601562 16.96875 16.96875 16.96875 4.503906 0 8.816406-1.785156 12-4.96875l14.054688-14.054688c3.183593-3.183593 4.96875-7.496093 4.96875-12 .007812-9.375-7.59375-16.976562-16.960938-16.976562-4.503906 0-8.816406 1.785156-12 4.96875l-14.054688 14.054688c-3.191406 3.191406-4.976562 7.503906-4.976562 12.007812zm0 0" fill="#f5e0cd"/><path d="m152 415.03125c0 9.367188 7.601562 16.96875 16.96875 16.96875 4.503906 0 8.816406-1.785156 12-4.96875l14.054688-14.054688c3.183593-3.183593 4.96875-7.496093 4.96875-12 .007812-9.375-7.59375-16.976562-16.960938-16.976562-4.503906 0-8.816406 1.785156-12 4.96875l-14.054688 14.054688c-3.191406 3.191406-4.976562 7.503906-4.976562 12.007812zm0 0" fill="#f5e0cd"/><path d="m182.34375 400.28125c3.992188-3.992188 6.734375-9.023438 8.265625-14.417969-2.289063-1.152343-4.839844-1.863281-7.578125-1.863281-4.503906 0-8.816406 1.785156-12 4.96875l-14.054688 14.054688c-3.183593 3.183593-4.976562 7.503906-4.976562 12.007812 0 2.738281.710938 5.289062 1.863281 7.578125 5.394531-1.53125 10.433594-4.273437 14.417969-8.265625zm0 0" fill="#f0d0b4"/><path d="m206.34375 424.28125c3.992188-3.992188 6.734375-9.023438 8.265625-14.417969-2.289063-1.152343-4.839844-1.863281-7.578125-1.863281-4.503906 0-8.816406 1.785156-12 4.96875l-14.054688 14.054688c-3.183593 3.183593-4.976562 7.503906-4.976562 12.007812 0 2.738281.710938 5.289062 1.863281 7.578125 5.394531-1.53125 10.433594-4.273437 14.417969-8.265625zm0 0" fill="#f0d0b4"/><path d="m230.34375 448.28125c3.992188-3.992188 6.734375-9.023438 8.265625-14.417969-2.289063-1.152343-4.839844-1.863281-7.578125-1.863281-4.503906 0-8.816406 1.785156-12 4.96875l-14.054688 14.054688c-3.183593 3.183593-4.976562 7.503906-4.976562 12.007812 0 2.738281.710938 5.289062 1.863281 7.578125 5.394531-1.53125 10.433594-4.273437 14.417969-8.265625zm0 0" fill="#f0d0b4"/><path d="m128 391.03125c0 9.367188 7.601562 16.96875 16.96875 16.96875 4.503906 0 8.816406-1.785156 12-4.96875l14.054688-14.054688c3.183593-3.183593 4.96875-7.496093 4.96875-12 .007812-9.375-7.59375-16.976562-16.960938-16.976562-4.503906 0-8.816406 1.785156-12 4.96875l-14.054688 14.054688c-3.191406 3.191406-4.976562 7.503906-4.976562 12.007812zm0 0" fill="#f5e0cd"/><path d="m133.3125 275.648438-53.3125 12.351562-8 64 33.488281 21.039062zm0 0" fill="#dfb28b"/><path d="m120 264-32 112h-8l-72-24v-152h16l96 56zm0 0" fill="#e6e9ed"/><path d="m88.527344 237.640625-64.527344-37.640625h-16v152l48 16 32-128zm0 0" fill="#b4dd7f"/><path d="m272 376-11.121094 11.566406 44.335938 36.945313c3.792968 3.152343 8.265625 5.273437 12.992187 6.441406 1.113281-2.210937 1.792969-4.664063 1.792969-7.296875 0-4.847656-2.152344-9.449219-5.878906-12.558594zm0 0" fill="#dfb28b"/><path d="m496 208h-17.976562l-26.792969 14.097656c-3.015625-1.664062-6.152344-3.074218-9.535157-3.921875l-33.703124-8.433593v-3.832032c14.910156-10.40625 24.007812-27.597656 24.007812-45.910156v-13.984375c0-31.078125-24.351562-57.085937-54.28125-57.992187-1.519531-.039063-3.015625.015624-4.519531.089843l8.738281-20.457031-42.363281-42.351562-24.972657 16.253906c-9.488281-5.34375-19.523437-9.503906-29.945312-12.421875l-6.167969-29.136719h-60.96875l-6.167969 29.144531c-10.421874 2.917969-20.464843 7.078125-29.945312 12.421875l-24.972656-16.253906-42.328125 42.328125 8.589843 20.472656c-.328124-.015625-.640624-.074219-.96875-.082031-15.320312-.445312-29.75 5.144531-40.710937 15.785156-10.976563 10.632813-17.015625 24.902344-17.015625 40.183594v16c0 18.3125 9.089844 35.496094 24 45.902344v3.839844l-21.984375 5.496093-39.847656-23.238281h-26.167969v165.769531l78.703125 26.230469h15.328125l1.914062-6.703125 24.125 14.480469c.394532 13.117187 10.914063 23.671875 24.019532 24.132812.460937 13.050782 10.949218 23.539063 24 24 .460937 13.050782 10.949218 23.539063 24 24 .476562 13.355469 11.414062 24.089844 24.878906 24.089844 5 0 9.902344-1.558594 14.023438-4.335938l7.085937 6.257813c4.441406 3.910156 10.160156 6.078125 16.097656 6.078125h1.480469c13.3125 0 24.144531-10.761719 24.3125-24.03125 13.167969-.167969 23.832031-10.832031 24-24 13.175781-.167969 23.847656-10.847656 24-24.023438 13.296875-.3125 24.03125-11.175781 24.03125-24.546874 0-.804688-.039062-1.597657-.121094-2.398438l144.121094-72.054688zm-80-61.984375v13.984375c0 14.199219-7.671875 27.464844-20.023438 34.617188l-4 2.3125.03125 25.316406 39.96875 9.984375-87.976562 46.304687v-21.550781c0-10.753906-4.34375-20.601563-11.457031-27.878906l27.457031-6.859375v-25.335938l-3.992188-2.308594c-12.34375-7.136718-20.007812-20.402343-20.007812-34.601562v-16c0-10.910156 4.3125-21.113281 12.152344-28.710938 7.832031-7.59375 18.222656-11.6875 29.085937-11.265624 21.371094.640624 38.761719 19.480468 38.761719 41.992187zm-155.9375 126.230469-36.214844-11.574219c-16.503906-5.289063-34.367187-6.078125-51.261718-2.335937l-4.585938 1.015624v-2.367187c0-11.03125 7.480469-20.609375 18.175781-23.289063l45.824219-11.449218v-25.335938l-3.992188-2.308594c-12.34375-7.136718-20.007812-20.402343-20.007812-34.601562v-16c0-10.910156 4.3125-21.113281 12.152344-28.710938 7.832031-7.59375 18.289062-11.6875 29.085937-11.265624 21.371094.640624 38.761719 19.480468 38.761719 41.992187v13.984375c0 14.199219-7.671875 27.464844-20.023438 34.617188l-4 2.3125.03125 25.316406 45.816407 11.449218c10.695312 2.679688 18.175781 12.257813 18.175781 23.289063v29.976563l-1.976562 1.039062h-4.902344l-49.183594-14.054688c-3.875-1.097656-7.867188-1.546874-11.875-1.699218zm-90.269531-152.511719c15.023437-29.109375 45.261719-47.734375 78.207031-47.734375 32.632812 0 62.742188 18.375 77.878906 47.089844-3.808594 7.636718-5.878906 16.09375-5.878906 24.910156v16c0 18.3125 9.089844 35.496094 24 45.902344v3.839844l-32 8.011718-32.007812-8.011718v-3.832032c14.910156-10.40625 24.007812-27.597656 24.007812-45.910156v-13.984375c0-31.078125-24.351562-57.085937-54.28125-57.992187-15.3125-.449219-29.75 5.144531-40.710938 15.785156-10.96875 10.640625-17.007812 24.910156-17.007812 40.191406v16c0 18.3125 9.089844 35.496094 24 45.902344v3.839844l-32 8.011718-32.007812-8.011718v-3.832032c14.910156-10.40625 24.007812-27.597656 24.007812-45.910156v-13.984375c0-9.414063-2.265625-18.351563-6.207031-26.28125zm-36.792969-48.382813 25.558594-25.558593 22.496094 14.640625 4.304687-2.640625c10.785156-6.609375 22.441406-11.449219 34.640625-14.367188l4.921875-1.179687 5.566406-26.246094h35.03125l5.550781 26.238281 4.921876 1.175781c12.199218 2.921876 23.855468 7.761719 34.640624 14.371094l4.304688 2.640625 22.496094-14.640625 25.527344 25.535156-9.074219 21.246094c-6.175781 2.65625-11.902344 6.394532-16.886719 11.226563-.328125.320312-.609375.664062-.929688.992187-18.847656-29.960937-52.167968-48.785156-88.070312-48.785156-36.160156 0-69.574219 19-88.375 49.265625-5.03125-5.265625-11.015625-9.53125-17.648438-12.511719zm-29 150.894532v-25.335938l-3.992188-2.308594c-12.34375-7.136718-20.007812-20.402343-20.007812-34.601562v-16c0-10.910156 4.3125-21.113281 12.152344-28.710938 7.832031-7.59375 18.246094-11.6875 29.085937-11.265624 21.371094.640624 38.761719 19.480468 38.761719 41.992187v13.984375c0 14.199219-7.671875 27.464844-20.023438 34.617188l-4 2.3125.03125 25.316406 27.449219 6.859375c-7.113281 7.277343-11.457031 17.125-11.457031 27.878906v5.925781l-24.953125 5.546875.648437-2.265625.304688-14.785156-42.191406-24.613281zm-88-14.246094h5.832031l57.535157 33.558594-29.03125 116.121094-34.335938-11.449219zm65.296875 160-15.746094-5.246094 28.203125-112.800781 18.246094 10.640625v2.285156l-30.03125 105.121094zm54.703125 23.03125c0-2.359375.953125-4.671875 2.625-6.34375l14.0625-14.0625c1.671875-1.671875 3.984375-2.625 6.34375-2.625 4.945312 0 8.96875 4.023438 8.96875 8.96875 0 2.359375-.953125 4.671875-2.625 6.34375l-14.0625 14.0625c-1.671875 1.671875-3.984375 2.625-6.34375 2.625-4.945312 0-8.96875-4.023438-8.96875-8.96875zm24 24c0-2.359375.953125-4.671875 2.625-6.34375l14.0625-14.0625c1.671875-1.671875 3.984375-2.625 6.34375-2.625 4.945312 0 8.96875 4.023438 8.96875 8.96875 0 2.359375-.953125 4.671875-2.625 6.34375l-14.0625 14.0625c-1.671875 1.671875-3.984375 2.625-6.34375 2.625-4.945312 0-8.96875-4.023438-8.96875-8.96875zm24 24c0-2.359375.953125-4.671875 2.625-6.34375l14.0625-14.0625c1.671875-1.671875 3.984375-2.625 6.34375-2.625 4.945312 0 8.96875 4.023438 8.96875 8.96875 0 2.359375-.953125 4.671875-2.625 6.34375l-14.0625 14.0625c-1.671875 1.671875-3.984375 2.625-6.34375 2.625-4.945312 0-8.96875-4.023438-8.96875-8.96875zm32.96875 32.96875c-4.945312 0-8.96875-4.023438-8.96875-8.96875 0-2.359375.953125-4.671875 2.625-6.34375l14.0625-14.0625c1.671875-1.671875 3.984375-2.625 6.34375-2.625 4.945312 0 8.96875 4.023438 8.96875 8.96875 0 2.359375-.953125 4.671875-2.625 6.34375l-14.0625 14.0625c-1.671875 1.671875-3.984375 2.625-6.34375 2.625zm38.6875 8h-1.480469c-2.039062 0-3.992187-.742188-5.511719-2.089844l-5.984374-5.277344 6.007812-6.007812c2.144531-2.144531 3.808594-4.695312 5.039062-7.433594l7.273438 6.054688c1.902344 1.585937 3 3.921875 3 6.410156 0 4.601562-3.742188 8.34375-8.34375 8.34375zm71.742188-72h-1.382813c-2.007813 0-3.96875-.710938-5.503906-2l-43.382813-36.152344-10.25 12.296875 42.128906 35.101563c1.894532 1.585937 2.992188 3.921875 2.992188 6.410156 0 4.601562-3.742188 8.34375-8.34375 8.34375h-1.746094c-1.941406 0-3.839844-.6875-5.335937-1.9375l-43.453125-36.207031-10.25 12.296875 42.128906 35.105468c1.902344 1.574219 3 3.910157 3 6.398438 0 4.601562-3.742188 8.34375-8.34375 8.34375-3.070312 0-6.0625-1.089844-8.417969-3.046875l-17.855469-14.882813c-3.933593-8.039062-12.015624-13.644531-21.480468-13.980468-.460938-13.050782-10.949219-23.539063-24-24-.460938-13.050782-10.949219-23.539063-24-24-.46875-13.355469-11.40625-24.089844-24.871094-24.089844-6.574219 0-13.007812 2.664062-17.65625 7.3125l-14.0625 14.0625c-.839844.839844-1.535156 1.792969-2.242188 2.738281l-24.574218-14.746093 21.542968-75.398438 54.007813-12.007812c14.167969-3.167969 29.105469-2.480469 42.921875 1.941406l11.785156 3.769531-39.953125 19.976563c-9.128906 4.574218-14.800781 13.757812-14.800781 23.96875v1.582031c0 14.777343 12.023438 26.800781 26.800781 26.800781 4.855469 0 9.632813-1.320312 13.785157-3.824219l29.789062-17.863281c5.984375-3.585938 14.015625-2.800781 19.183594 1.847656l67.59375 60.832032c1.808594 1.640624 2.847656 3.96875 2.847656 6.40625 0 4.746093-3.855469 8.601562-8.601562 8.601562zm152.601562-92.945312-134.777344 67.394531c-.4375-.464844-.894531-.90625-1.375-1.335938l-67.582031-60.832031c-5.921875-5.34375-13.578125-8.28125-21.554687-8.28125-5.832032 0-11.558594 1.585938-16.574219 4.59375l-29.800781 17.871094c-1.671876 1.007812-3.582032 1.535156-5.535157 1.535156-5.960937 0-10.800781-4.839844-10.800781-10.800781v-1.582031c0-4.121094 2.289062-7.816407 5.96875-9.65625l44.625-22.3125c7.636719-3.824219 16.703125-4.679688 24.933594-2.3125l50.273437 14.359374 12.175781.304688 150.023438-78.960938zm0 0"/></svg>